<svg width="16" height="16" viewBox="0 0 16 16" fill="none" xmlns="http://www.w3.org/2000/svg">
<g id="oui:arrow-up">
<path id="Vector" d="M13.0685 5.15735L8.38346 9.76836C8.28124 9.86948 8.14325 9.92621 7.99946 9.92621C7.85567 9.92621 7.71768 9.86948 7.61546 9.76836L2.93046 5.15836C2.8276 5.05728 2.68917 5.00064 2.54496 5.00064C2.40075 5.00064 2.26231 5.05728 2.15946 5.15836C2.10881 5.20773 2.06856 5.26675 2.04107 5.33193C2.01359 5.3971 1.99943 5.46712 1.99943 5.53786C1.99943 5.60859 2.01359 5.67861 2.04107 5.74379C2.06856 5.80896 2.10881 5.86798 2.15946 5.91736L6.84346 10.5274C7.15198 10.8303 7.56708 11 7.99946 11C8.43184 11 8.84694 10.8303 9.15546 10.5274L13.8395 5.91735C13.8903 5.86796 13.9306 5.80888 13.9582 5.74362C13.9858 5.67835 14 5.60821 14 5.53735C14 5.4665 13.9858 5.39636 13.9582 5.33109C13.9306 5.26583 13.8903 5.20675 13.8395 5.15735C13.7366 5.05628 13.5982 4.99964 13.454 4.99964C13.3098 4.99964 13.1713 5.05628 13.0685 5.15735Z" fill="#CEF78F"/>
</g>
</svg>
